<?xml version="1.0" encoding="UTF-8"?>
<svg version="1.1" viewBox="0 0 2048 551" width="594" height="160" xmlns="http://www.w3.org/2000/svg">
<path transform="translate(0,38)" d="m0 0h198l30 2 23 4 15 4 19 7 15 8 14 10 13 13 9 13 7 14 5 14 4 20 1 9v17l-3 21-5 16-6 14-8 12-11 12-9 8-14 9-18 9 22 10 15 9 13 10 12 12 9 14 6 14 5 19 3 26v31l-3 19-5 16-6 13-7 12-9 10-5 6-17 13-14 8-20 8-20 6-21 4-27 3-20 1h-190zm93 78v121h107l15-3 12-5 11-7 7-7 7-12 4-14 1-6v-14l-4-16-6-12-9-10-14-9-16-5-6-1zm0 199v145h105l16-2 15-4 15-8 9-8 7-11 5-12 3-19v-18l-2-13-4-13-6-11-9-10-11-7-12-5-14-3-9-1z" fill="#fff"/>
<path transform="translate(781,38)" d="m0 0h100l3 3 11 20 14 24 16 28 14 24 45 78 14 24 16 28 14 24 30 52 14 24 6 10v-294l1-45h90v499l-24 1h-68l-8-13-12-21-15-26-14-24-14-25-10-17-13-23-14-24-16-28-14-24-14-25-10-17-28-49-15-26-7-12-2-1 1 3v350l-1 1-47 1h-42l-1-1-1-312v-60z" fill="#fff"/>
<path transform="translate(411,38)" d="m0 0h318l1 79-3 2h-220v118h165l1 1v79l-2 1h-164v218l-1 1-48 1h-47l-1-1v-498z" fill="#fff"/>
<path transform="translate(1304,41)" d="m0 0h34l33 1 15 4 9 6 6 7 4 9 1 5v12l-4 11-9 10-6 3-1 2 6 2 8 6 6 8 3 10v19l-4 10-4 6-7 6-8 4-11 3-7 1h-65v-144zm28 23-1 1v34h33l8-4 4-4 2-11-3-9-6-5-2-1-10-1zm-1 58v42h30l9-2 6-4 4-6 1-4v-10l-3-8-5-5-7-3z" fill="#fff"/>
<path transform="translate(1304,397)" d="m0 0 30 1 11 20 14 24 16 28 9 15 5 8v-95l1-1h25l1 1v143l-1 1h-26l-6-9-13-23-14-24-16-28-9-16h-1v99l-1 1h-25l-1-1v-143z" fill="#fff"/>
<path transform="translate(1591,438)" d="m0 0h23l3 9 11 50 1 2 3-12 9-39 3-10h23l2 5 11 51v6h2l3-15 11-47h24l-1 8-21 82-4 13-1 1h-22l-2-6-11-46-2-9h-1l-12 52-3 9h-22l-3-7-13-50-11-44z" fill="#fff"/>
<path transform="translate(1772,219)" d="m0 0h23l1 1v144h-21l-1-1v-8l-7 4-8 5-7 2h-15l-11-4-10-9-6-9-4-10-3-17v-14l4-16 7-14 9-9 10-5 4-1h14l11 4 8 5 1-47zm-25 59-8 4-6 7-4 13v21l4 12 7 8 8 3h8l9-4 6-6v-49l-6-5-10-4z" fill="#fff"/>
<path transform="translate(1664,41)" d="m0 0h24l1 1 1 78 10-12 14-19 5-7h29l-2 4-10 13-12 15-5 7 9 19 12 23 11 22v1h-27l-4-6-11-23-7-15-4 2-7 8-1 1-1 33h-25l-1-11v-132z" fill="#fff"/>
<path transform="translate(1889,397)" d="m0 0h24v80l5-5 12-16 10-13 4-5h29l-2 4-7 8-20 26 2 6 15 29 8 17 6 11v3h-26l-5-8-8-16-10-21-5 4-7 10v30l-1 1h-24l-1-1v-143z" fill="#fff"/>
<path transform="translate(1304,219)" d="m0 0h89l2 1v22l-1 1h-63v34h48v23h-48v64h-28v-144z" fill="#fff"/>
<path transform="translate(1504,80)" d="m0 0h15l10 2 9 4 5 4 6 12 2 9 1 67 1 8h-25l-1-8-10 6-13 4h-18l-10-5-6-7-4-10v-12l4-10 4-6 6-5 14-7 19-5 12-1v-11l-3-6-5-3h-12l-9 4-7 7-4-1-13-10 1-4 9-8 10-5zm18 57-16 4-11 6-3 5-1 6 3 8 4 3 7 1 9-3 11-7 1-2v-21z" fill="#fff"/>
<path transform="translate(1651,258)" d="m0 0h15l11 4 5 4 5 9 2 6 1 8v74l-1 1h-24l-1-1v-43l-1-33-4-6-4-2h-8l-12 5-5 4-1 75-1 1h-24l-1-3v-91l1-10h23v10l11-7z" fill="#fff"/>
<path transform="translate(1498,260)" d="m0 0h25l1 74 3 8 6 3h7l11-4 6-5 1-4v-56l1-16h25v104h-23v-10l-18 10-8 2h-14l-9-3-6-5-6-10-2-7-1-11v-69z" fill="#fff"/>
<path transform="translate(1757,436)" d="m0 0h21l11 4 8 6 7 8 5 10 3 11 1 7v14l-3 16-5 12-7 9-10 7-9 3-7 1h-11l-13-3-9-6-7-7-7-14-3-11-1-15 2-15 5-15 7-10 9-7 8-4zm5 20-6 3-4 5-4 10-1 5v21l3 12 4 6 5 4 2 1h12l7-4 5-8 2-8v-26l-3-10-4-6-5-4-2-1z" fill="#fff"/>
<path transform="translate(1430,258)" d="m0 0h18l13 4 8 6 8 9 5 11 3 15v17l-3 16-6 12-9 10-7 4-8 3-5 1h-17l-12-4-8-6-8-9-6-14-2-11v-20l3-14 7-14 4-5 10-7zm5 20-8 4-5 8-2 7-1 9v13l2 12 4 8 5 5 6 2h7l8-4 5-6 2-5 2-20-2-18-4-8-7-6-4-1z" fill="#fff"/>
<path transform="translate(1467,436)" d="m0 0h21l10 4 9 7 6 8 5 12 2 8v18l-1 1h-62l3 14 4 8 6 5 10 2 9-2 9-6 4-4 17 10v4l-8 9-10 6-10 3-8 1h-12l-10-2-10-5-9-9-7-14-3-13v-22l4-16 6-11 4-5 8-6 9-4zm6 18-7 3-6 7-3 9 1 4h39l-2-11-4-6-5-4-7-2z" fill="#fff"/>
<path transform="translate(1846,258)" d="m0 0h17l10 3 9 6 7 8 6 12 2 9v20l-62 1 2 12 4 9 6 5 5 2h9l9-4 8-7 5 1 13 8 1 3-7 8-9 7-12 4-6 1h-18l-10-3-9-6-8-9-5-10-4-17v-17l3-15 8-16 10-9 11-5zm7 18-8 2-6 5-4 9-1 6 1 1h39l-1-9-5-8-5-4z" fill="#fff"/>
<path transform="translate(2e3 258)" d="m0 0h18l10 3 8 4 8 6 1 4-14 12-4-1-7-6-8-3-8 1-5 3-2 4 1 5 4 4 14 6 12 5 9 5 8 9 3 8 1 9-2 11-6 9-8 6-9 3-6 1h-17l-13-4-11-8-6-7 1-4 13-10h3l4 5 10 7 3 1h12l6-4 2-3v-6l-5-5-14-6-16-7-8-6-5-6-3-7v-14l4-10 5-6 10-6z" fill="#fff"/>
<path transform="translate(1601,80)" d="m0 0h15l12 3 11 7 7 8 4 9-1 2-18 7-4-2-5-8-6-4-10-1-8 3-4 5-3 7-2 17 1 15 4 11 4 5 7 3h9l8-4 6-7 2-4 5 1 15 8-1 5-7 9-7 7-8 4-8 2-10 1-15-2-12-6-9-9-6-12-3-10-1-8v-15l3-16 7-14 7-8 10-6z" fill="#fff"/>
<path transform="translate(1539,403)" d="m0 0h26v35h20l1 19-1 1h-20v64h16l4-1v21l-1 1-13 1h-11l-9-2-8-7-3-6-1-5v-66h-14v-20h14z" fill="#fff"/>
<path transform="translate(1429,41)" d="m0 0 25 1v143l-1 1h-25v-144z" fill="#fff"/>
<path transform="translate(1875,435)" d="m0 0h3v26l-1 1-10 2-7 4-8 7-1 66-1 1h-24l-1-1v-103h23v15h2l2-5 9-8 5-3z" fill="#fff"/>
<path transform="translate(1956,258)" d="m0 0h8v26l-11 2-8 5-7 7-1 5-1 61h-25v-104h23l1 2v13l7-9 9-6z" fill="#fff"/>
</svg>
